<?xml version="1.0" encoding="utf-8"?>
<!-- Generator: Adobe Illustrator 25.1.0, SVG Export Plug-In . SVG Version: 6.00 Build 0)  -->
<svg version="1.1" id="레이어_1" xmlns="http://www.w3.org/2000/svg" xmlns:xlink="http://www.w3.org/1999/xlink" x="0px"
	 y="0px" viewBox="0 0 841.89 424.78" style="enable-background:new 0 0 841.89 424.78;" xml:space="preserve">
<g>
	<path d="M799.46,180.37l1.01-0.72c-11.14-18.81-17.71-40.88-17.71-40.88c-10.95,6.57-20.01,13.12-27.65,19.57l0-0.63l-0.01-6.91
		l-0.01-12.6c-18.5,7.55-42.22,10.84-42.22,10.84l-0.41,1.86c0,0,14.68-1.98,15.44,19.62c0.02,0.58,0.04,1.16,0.04,1.77v12.23v51.37
		c0,0,0.44,11.1-16.51,11.1v2.41h62.64v-2.06c-19.73,0.09-18.79-11.89-18.79-11.89v-5.13l-0.13-58.24
		C778.18,160.66,799.46,180.37,799.46,180.37z"/>
	<path d="M276.44,249.52c-15.28,0-15.37-11.89-15.37-11.89v-5.13L260.89,79.3c-18.07,5.95-42.22,8.28-42.22,8.28l-0.41,1.86
		c0,0,15.48-1.31,15.48,23.95v124.67c0,0,0.58,11.1-15.48,11.1v2.41h58.19V249.52z"/>
	<path d="M442.82,151.53c-4.58-2.22-24.01-14.84-54.06,0.34l-0.02-12.6c-18.5,7.55-42.22,10.84-42.22,10.84l-0.41,1.86
		c0,0,14.68-1.98,15.44,19.62c0.02,0.58,0.04,1.16,0.04,1.77v12.23v109.97c0,0,0.44,11.1-16.51,11.1v2.41h62.64v-2.06
		c-19.73,0.09-18.79-11.89-18.79-11.89v-5.13l-0.16-131.23c0.12-0.09,0.21-0.21,0.35-0.26c17.69-6.65,40.02,2.73,46.72,25.07
		c6.29,20.98,5.25,55.43-38.07,70.49l1.12,0.92c0,0,59.08-6.46,68.44-43.85C476.68,173.75,449.03,154.54,442.82,151.53z"/>
	<path d="M568.56,150.75c-4.58-2.22-24.01-14.84-54.06,0.34l-0.01-12.6c-18.5,7.55-42.22,10.84-42.22,10.84l-0.41,1.86
		c0,0,14.68-1.98,15.44,19.62c0.02,0.58,0.04,1.16,0.04,1.77v12.24v109.97c0,0,0.44,11.1-16.51,11.1v2.41h62.64v-2.06
		c-19.73,0.09-18.79-11.89-18.79-11.89v-5.13l-0.16-131.23c0.12-0.09,0.21-0.21,0.35-0.26c17.69-6.65,40.02,2.73,46.72,25.07
		c6.29,20.98,5.25,55.43-38.07,70.49l1.12,0.92c0,0,59.08-6.46,68.44-43.85C602.43,172.98,574.78,153.77,568.56,150.75z"/>
	<path d="M207.69,92.78c-117.2-36.7-147.38,23.1-153.88,32.61c-6.5,9.51-30.64,60.25,13.74,106.75c44.38,46.5,135.14,7,135.14,7
		l0.85-2.27c-95.6,13.31-122.58-30.75-128.47-69.24c-5.88-38.49,16.22-80.85,62.17-76.52c45.95,4.33,44.95,52.82,44.95,52.82
		l1.54,0.36C192.23,117.74,207.69,92.78,207.69,92.78z"/>
	<path d="M346.36,249.52c-15.28,0-15.37-11.89-15.37-11.89v-5.13l-0.18-91.9c-18.07,5.95-42.22,8.28-42.22,8.28l-0.41,1.86
		c0,0,15.48-1.31,15.48,23.95v63.36c0,0,0.58,11.1-15.48,11.1v2.41h58.19V249.52z"/>
	<polygon points="332.66,105.78 317.75,87.26 298.15,106.26 313.18,126.24 	"/>
	<path d="M697.8,234.77C697.8,234.77,697.8,234.77,697.8,234.77c-26.83,5.59-42.1,0.53-51.02-9.59c-0.5-0.51-0.98-1.06-1.45-1.62
		c-0.2-0.23-0.4-0.46-0.59-0.7c-0.45-0.55-0.87-1.12-1.29-1.72c-0.18-0.26-0.36-0.52-0.53-0.78c-0.42-0.63-0.84-1.28-1.23-1.95
		c-0.07-0.12-0.13-0.25-0.2-0.38c-1.35-2.39-2.49-5.05-3.39-7.98c-0.07-0.22-0.14-0.44-0.21-0.66c-0.27-0.91-0.51-1.85-0.73-2.81
		c-0.06-0.25-0.11-0.5-0.16-0.75c-0.22-1.01-0.42-2.03-0.58-3.1c-0.42-2.72-0.68-5.58-0.73-8.66c25.5-0.96,58.74-2.8,63.45-3.91
		c3.26-0.8,3.68-4.19,3.76-8.51c0.06-6.82-1.94-13.57-5.53-19.46c0,0,0,0,0,0c-0.34-0.56-0.71-1.12-1.08-1.67
		c-0.03-0.05-0.07-0.1-0.1-0.15c-0.34-0.5-0.7-0.99-1.07-1.48c-0.05-0.07-0.1-0.13-0.16-0.2c-0.36-0.47-0.73-0.93-1.12-1.38
		c-0.06-0.07-0.12-0.14-0.17-0.21c-0.39-0.46-0.79-0.91-1.21-1.35c-0.05-0.05-0.1-0.11-0.15-0.16c-0.45-0.47-0.91-0.94-1.38-1.39
		c-0.02-0.01-0.03-0.03-0.04-0.04c-1.5-1.43-3.12-2.75-4.86-3.94c-0.04-0.02-0.07-0.05-0.11-0.07c-0.52-0.36-1.05-0.7-1.59-1.03
		c-0.12-0.07-0.24-0.14-0.36-0.21c-0.46-0.28-0.93-0.55-1.41-0.8c-0.16-0.09-0.32-0.17-0.48-0.25c-0.45-0.23-0.9-0.46-1.36-0.68
		c-0.18-0.09-0.37-0.17-0.55-0.26c-0.45-0.2-0.9-0.4-1.36-0.59c-0.19-0.08-0.39-0.16-0.59-0.24c-0.47-0.18-0.94-0.36-1.42-0.52
		c-0.19-0.07-0.37-0.13-0.56-0.2c-0.52-0.17-1.05-0.33-1.58-0.48c-0.15-0.04-0.31-0.09-0.46-0.13c-0.67-0.18-1.35-0.35-2.04-0.5
		c-0.01,0-0.03-0.01-0.04-0.01c-0.73-0.16-1.47-0.29-2.23-0.41c0,0,0,0-0.01,0c-0.89-0.14-1.79-0.23-2.7-0.31
		c-0.21-0.02-0.43-0.04-0.64-0.05c-0.93-0.06-1.86-0.11-2.81-0.11c0,0,0,0,0,0c-0.83,0-1.67,0.02-2.51,0.07
		c-0.14,0.01-0.28,0.03-0.42,0.04c-0.7,0.05-1.4,0.1-2.1,0.18c-0.09,0.01-0.18,0.03-0.27,0.04c-0.76,0.09-1.52,0.2-2.28,0.33
		c-0.02,0-0.03,0.01-0.05,0.01c-4.2,0.73-8.37,2.06-12.41,3.93c0,0,0,0,0-0.01c0,0,0-0.01,0-0.01s-14.54,6.01-25.12,20.76
		c-2.97,4.03-4.82,7.78-6.03,10.6c-0.02,0.04-0.03,0.08-0.05,0.11l0,0c-0.75,1.76-1.25,3.15-1.61,4
		c-1.95,4.58-6.63,22.18,1.65,40.18c0,0,0,0,0,0c3.74,8.13,10.12,16.33,20.59,23.46c11.17,7.6,23.32,8.62,34.57,6.62
		c22.64-4.03,41.63-20.35,41.63-20.35l0.24-1.49C705.41,233.04,701.51,233.99,697.8,234.77 M643.53,162.39
		C643.53,162.39,643.53,162.39,643.53,162.39c1.47-1.88,3.13-3.58,4.96-5.07c0.13-0.1,0.25-0.18,0.37-0.28
		c0.69-0.54,1.42-1.05,2.16-1.53c2.93-1.85,5.08-2.36,5.74-2.47c0.58-0.07,1.16-0.12,1.74-0.12c10.95,0,17.57,12.24,17.33,24.45
		c0,3.9-1.46,4.62-5.21,4.78c-11.68,0.41-22.47,0.56-33.73,0.72C637.85,174.3,640.25,167.41,643.53,162.39z"/>
</g>
<g>
	<path d="M359.93,346.67c-3.36,0-5.73,2.58-5.72,7.22c-0.01,4.72,2.38,7.22,5.72,7.22c2.44,0,4.4-1.36,4.9-3.77h3.71
		c-0.57,3.94-3.81,7.08-8.67,7.08c-5.41,0-9.39-3.92-9.37-10.54c-0.01-6.63,4.01-10.54,9.37-10.54c4.53,0,8.03,2.63,8.67,7.19h-3.71
		C364.39,348.09,362.42,346.67,359.93,346.67z"/>
	<path d="M386.41,364.43c-5.4,0-9.42-3.92-9.4-10.54c-0.01-6.63,4.01-10.54,9.4-10.54c5.37,0,9.42,3.91,9.4,10.54
		C395.82,360.52,391.77,364.43,386.41,364.43z M386.41,361.11c3.36,0,5.71-2.54,5.69-7.22c0.01-4.69-2.34-7.22-5.69-7.22
		c-3.34,0-5.71,2.54-5.69,7.22C380.7,358.58,383.06,361.11,386.41,361.11z"/>
	<path d="M409.42,343.64l6.09,14.9h0.25l6.09-14.9h4.53v20.5h-3.54v-14.1h-0.2l-5.69,14.05h-2.63l-5.69-14.1h-0.17v14.16h-3.57
		v-20.5H409.42z"/>
	<path d="M435.98,343.64h7.7c4.7,0,7.21,2.86,7.22,6.8c-0.01,3.92-2.55,6.77-7.28,6.77h-3.96v6.94h-3.68V343.64z M443.12,354.17
		c2.78-0.01,4.02-1.57,4.02-3.74c0-2.19-1.25-3.71-4.02-3.71h-3.46v7.45H443.12z"/>
	<path d="M456.07,364.14l7.22-20.5h4.53l7.25,20.5h-3.94l-1.71-5.07h-7.72l-1.7,5.07H456.07z M468.43,356.1l-2.79-8.27h-0.17
		l-2.78,8.27H468.43z"/>
	<path d="M500.16,364.14h-3.29l-9.71-14.02h-0.17v14.02h-3.68v-20.5h3.34l9.66,14.02h0.2v-14.02h3.65V364.14z"/>
	<path d="M512.5,343.64l5.04,9.06h0.2l5.04-9.06h4.16l-7.45,12.83v7.67h-3.68v-7.67l-7.48-12.83H512.5z"/>
</g>
</svg>
